REM DIRINDEX 1\5,1\2\6,1\2\7,1\3\8,1\3\9,1\3\10,1\3\11,1\4\12,1\4\13,1\4\14
REM DIRNAME cjc043,folder01,folder02,folder03,folder04,folder05,folder06,folder07,folder08,folder09,folder10,folder11,folder12,folder13
TITLE ""
FILE "5Q_h_067-076.mp3" MP3
  TRACK 01 AUDIO
    TITLE "12:cjc043_0203"
    INDEX 01 00:00:00
  TRACK 02 AUDIO
    TITLE "0:"
    INDEX 01 00:01:52
  TRACK 03 AUDIO
    TITLE "13:cjc043_0204"
    INDEX 01 00:02:32
  TRACK 04 AUDIO
    TITLE "0:"
    INDEX 01 00:04:21
  TRACK 05 AUDIO
    TITLE "14:cjc043_0205"
    INDEX 01 00:05:07
  TRACK 06 AUDIO
    TITLE "0:"
    INDEX 01 00:07:21
  TRACK 07 AUDIO
    TITLE "12:cjc043_0206"
    INDEX 01 00:07:70
  TRACK 08 AUDIO
    TITLE "0:"
    INDEX 01 00:10:18
  TRACK 09 AUDIO
    TITLE "13:cjc043_0207"
    INDEX 01 00:10:68
  TRACK 10 AUDIO
    TITLE "0:"
    INDEX 01 00:13:14
  TRACK 11 AUDIO
    TITLE "14:cjc043_0208"
    INDEX 01 00:13:71
  TRACK 12 AUDIO
    TITLE "0:"
    INDEX 01 00:16:42
  TRACK 13 AUDIO
    TITLE "12:cjc043_0209"
    INDEX 01 00:17:16
  TRACK 14 AUDIO
    TITLE "0:"
    INDEX 01 00:19:38
  TRACK 15 AUDIO
    TITLE "13:cjc043_0210"
    INDEX 01 00:20:22
  TRACK 16 AUDIO
    TITLE "0:"
    INDEX 01 00:22:46
  TRACK 17 AUDIO
    TITLE "14:cjc043_0211"
    INDEX 01 00:23:28
  TRACK 18 AUDIO
    TITLE "0:"
    INDEX 01 00:25:54
  TRACK 19 AUDIO
    TITLE "12:cjc043_0212"
    INDEX 01 00:26:32
  TRACK 20 AUDIO
    TITLE "0:"
    INDEX 01 00:28:29
  TRACK 21 AUDIO
    TITLE "13:cjc043_0213"
    INDEX 01 00:29:15
  TRACK 22 AUDIO
    TITLE "0:"
    INDEX 01 00:31:10
  TRACK 23 AUDIO
    TITLE "14:cjc043_0214"
    INDEX 01 00:31:69
  TRACK 24 AUDIO
    TITLE "0:"
    INDEX 01 00:34:34
  TRACK 25 AUDIO
    TITLE "12:cjc043_0215"
    INDEX 01 00:35:17
  TRACK 26 AUDIO
    TITLE "0:"
    INDEX 01 00:37:14
  TRACK 27 AUDIO
    TITLE "13:cjc043_0216"
    INDEX 01 00:37:73
  TRACK 28 AUDIO
    TITLE "0:"
    INDEX 01 00:39:72
  TRACK 29 AUDIO
    TITLE "14:cjc043_0217"
    INDEX 01 00:40:56
  TRACK 30 AUDIO
    TITLE "0:"
    INDEX 01 00:44:34
  TRACK 31 AUDIO
    TITLE "12:cjc043_0218"
    INDEX 01 00:45:14
  TRACK 32 AUDIO
    TITLE "0:"
    INDEX 01 00:47:32
  TRACK 33 AUDIO
    TITLE "13:cjc043_0219"
    INDEX 01 00:48:14
  TRACK 34 AUDIO
    TITLE "0:"
    INDEX 01 00:50:31
  TRACK 35 AUDIO
    TITLE "14:cjc043_0220"
    INDEX 01 00:51:13
  TRACK 36 AUDIO
    TITLE "0:"
    INDEX 01 00:53:29
  TRACK 37 AUDIO
    TITLE "12:cjc043_0221"
    INDEX 01 00:54:11
  TRACK 38 AUDIO
    TITLE "0:"
    INDEX 01 00:56:29
  TRACK 39 AUDIO
    TITLE "13:cjc043_0222"
    INDEX 01 00:57:11
  TRACK 40 AUDIO
    TITLE "0:"
    INDEX 01 00:59:30
  TRACK 41 AUDIO
    TITLE "14:cjc043_0223"
    INDEX 01 01:00:08
  TRACK 42 AUDIO
    TITLE "0:"
    INDEX 01 01:02:48
  TRACK 43 AUDIO
    TITLE "12:cjc043_0224"
    INDEX 01 01:03:26
  TRACK 44 AUDIO
    TITLE "0:"
    INDEX 01 01:06:00
  TRACK 45 AUDIO
    TITLE "13:cjc043_0225"
    INDEX 01 01:06:57
  TRACK 46 AUDIO
    TITLE "0:"
    INDEX 01 01:09:32
  TRACK 47 AUDIO
    TITLE "14:cjc043_0226"
    INDEX 01 01:10:14
  TRACK 48 AUDIO
    TITLE "0:"
    INDEX 01 01:12:73
  TRACK 49 AUDIO
    TITLE "12:cjc043_0227"
    INDEX 01 01:13:49
  TRACK 50 AUDIO
    TITLE "0:"
    INDEX 01 01:16:14
  TRACK 51 AUDIO
    TITLE "13:cjc043_0228"
    INDEX 01 01:16:67
  TRACK 52 AUDIO
    TITLE "0:"
    INDEX 01 01:19:30
  TRACK 53 AUDIO
    TITLE "14:cjc043_0229"
    INDEX 01 01:20:10
  TRACK 54 AUDIO
    TITLE "0:"
    INDEX 01 01:22:64
  TRACK 55 AUDIO
    TITLE "12:cjc043_0230"
    INDEX 01 01:23:44
  TRACK 56 AUDIO
    TITLE "0:"
    INDEX 01 01:25:31
  TRACK 57 AUDIO
    TITLE "13:cjc043_0231"
    INDEX 01 01:26:09
  TRACK 58 AUDIO
    TITLE "0:"
    INDEX 01 01:27:71
  TRACK 59 AUDIO
    TITLE "14:cjc043_0232"
    INDEX 01 01:28:47
  TRACK 60 AUDIO
    TITLE "0:"
    INDEX 01 01:30:38
